<svg width="72" height="72" viewBox="0 0 72 72" fill="none" xmlns="http://www.w3.org/2000/svg">
<path d="M52.56 20.88V16.56C52.56 14.175 50.625 12.24 48.24 12.24H20.16C17.775 12.24 15.84 14.175 15.84 16.56V55.44C15.84 57.825 17.775 59.76 20.16 59.76H48.24C50.625 59.76 52.56 57.825 52.56 55.44V51.12H53.28V20.88H52.56Z" fill="#DB347A"/>
<path d="M48.24 60.48H20.16C17.3812 60.48 15.12 58.2187 15.12 55.44V16.56C15.12 13.7812 17.3812 11.52 20.16 11.52H48.24C51.0187 11.52 53.28 13.7812 53.28 16.56V20.88C53.28 21.2794 52.9594 21.6 52.56 21.6C52.1606 21.6 51.84 21.2794 51.84 20.88V16.56C51.84 14.5744 50.2256 12.96 48.24 12.96H20.16C18.1744 12.96 16.56 14.5744 16.56 16.56V55.44C16.56 57.4256 18.1744 59.04 20.16 59.04H48.24C50.2256 59.04 51.84 57.4256 51.84 55.44V51.12C51.84 50.7206 52.1606 50.4 52.56 50.4C52.9594 50.4 53.28 50.7206 53.28 51.12V55.44C53.28 58.2187 51.0187 60.48 48.24 60.48Z" fill="#093D49"/>
<path d="M28.8 38.88H53.28L48.96 43.2L52.56 46.8L63.36 36L52.56 25.2L48.96 28.8L53.28 33.12H28.8V38.88Z" fill="#EBFBFF"/>
<path d="M52.56 47.52C52.3744 47.52 52.1916 47.4497 52.0509 47.309L48.4509 43.709C48.1697 43.4278 48.1697 42.9722 48.4509 42.6909L51.5419 39.6H28.8C28.4006 39.6 28.08 39.2794 28.08 38.88V33.12C28.08 32.7206 28.4006 32.4 28.8 32.4H51.5419L48.4509 29.309C48.1697 29.0278 48.1697 28.5722 48.4509 28.2909L52.0509 24.6909C52.3322 24.4097 52.7878 24.4097 53.0691 24.6909L63.8691 35.4909C64.1503 35.7722 64.1503 36.2278 63.8691 36.509L53.0691 47.309C52.9284 47.4497 52.7456 47.52 52.56 47.52ZM49.9781 43.2L52.56 45.7819L62.3419 36L52.56 26.2181L49.9781 28.8L53.7891 32.6109C53.9944 32.8162 54.0562 33.1256 53.9466 33.3956C53.8341 33.6656 53.5697 33.84 53.28 33.84H29.52V38.16H53.28C53.5697 38.16 53.8341 38.3344 53.9466 38.6044C54.0562 38.8744 53.9944 39.1837 53.7891 39.389L49.9781 43.2Z" fill="#093D49"/>
<path d="M45.72 56.16H22.68C20.8941 56.16 19.44 54.7059 19.44 52.92V19.08C19.44 17.2941 20.8941 15.84 22.68 15.84H34.92C35.1197 15.84 35.28 16.0003 35.28 16.2C35.28 16.3997 35.1197 16.56 34.92 16.56H22.68C21.2906 16.56 20.16 17.6906 20.16 19.08V52.92C20.16 54.3094 21.2906 55.44 22.68 55.44H45.72C47.1094 55.44 48.24 54.3094 48.24 52.92V50.76C48.24 50.5603 48.4003 50.4 48.6 50.4C48.7997 50.4 48.96 50.5603 48.96 50.76V52.92C48.96 54.7059 47.5059 56.16 45.72 56.16Z" fill="#093D49"/>
<path d="M39.24 16.56H36.36C36.1603 16.56 36 16.3997 36 16.2C36 16.0003 36.1603 15.84 36.36 15.84H39.24C39.4397 15.84 39.6 16.0003 39.6 16.2C39.6 16.3997 39.4397 16.56 39.24 16.56Z" fill="#093D49"/>
<path d="M41.4 16.56H40.68C40.4803 16.56 40.32 16.3997 40.32 16.2C40.32 16.0003 40.4803 15.84 40.68 15.84H41.4C41.5997 15.84 41.76 16.0003 41.76 16.2C41.76 16.3997 41.5997 16.56 41.4 16.56Z" fill="#093D49"/>
</svg>
