<svg width="72" height="72" viewBox="0 0 72 72" fill="none" xmlns="http://www.w3.org/2000/svg">
<path d="M55.7381 36.1884C55.6791 33.2522 57.2681 31.3903 59.9316 30.3581C59.7684 28.755 57.9009 24.2437 56.9559 23.1694C54.3994 24.3675 51.9778 24.1847 49.9416 22.1737C47.8716 20.1291 47.7084 17.685 48.9122 15.075C46.665 13.6941 44.2603 12.6956 41.6841 12.0966C40.815 14.6278 39.1275 16.2169 36.4781 16.4109C33.3422 16.6416 31.3087 15.0216 30.2316 12.1219C27.6581 12.7519 25.2591 13.7475 23.0344 15.1397C24.2578 17.7272 24.1003 20.1459 22.0866 22.1906C20.0475 24.2634 17.6091 24.4575 14.9906 23.2537C13.6266 25.4981 12.6478 27.9 12.06 30.4706C14.6756 31.4325 16.2534 33.2269 16.3209 36.0112C16.3884 38.9081 14.8275 40.8037 12.1387 41.8472C12.7575 44.4009 13.7672 46.7747 15.1594 48.9994C17.6991 47.8659 20.07 48.0544 22.0725 50.0006C24.1116 51.9834 24.3562 54.3797 23.2312 56.97C25.4756 58.3369 27.8662 59.3128 30.4228 59.9034C30.4594 59.8275 30.4903 59.7797 30.5072 59.7319C31.4325 57.3244 33.5306 55.7831 35.9325 55.7522C38.5003 55.7212 40.6266 57.1528 41.6109 59.5969C41.7178 59.8641 41.8387 59.8584 42.0694 59.7994C44.3812 59.2144 46.5637 58.3144 48.6141 57.0937C48.7266 57.0262 48.8306 56.9503 48.9206 56.8912C47.8772 54.5428 47.9728 52.3125 49.6378 50.3747C51.6403 48.0403 54.1575 47.6972 56.9559 48.8897C58.3369 46.6566 59.3325 44.2772 59.9372 41.7319C57.3581 40.7419 55.7972 38.9756 55.7381 36.1884ZM35.9944 40.1991C33.6628 40.1878 31.7841 38.3006 31.7925 35.9747C31.8037 33.6459 33.7022 31.7784 36.0534 31.8009C38.3991 31.8234 40.2722 33.7669 40.2047 36.1237C40.1428 38.3147 38.3625 40.1878 35.9944 40.1991Z" fill="#1E5194"/>
<path d="M30.3947 60.6206C30.3497 60.6206 30.3047 60.615 30.2597 60.6037C27.6525 60.0019 25.1606 58.9866 22.8544 57.5859C22.5478 57.3975 22.4269 57.0122 22.5703 56.6831C23.6391 54.2278 23.3128 52.2112 21.5691 50.5181C19.8703 48.8616 17.8678 48.5831 15.4547 49.6575C15.1284 49.8009 14.7431 49.6856 14.5519 49.3819C13.1175 47.0897 12.0712 44.6119 11.4412 42.0187C11.3569 41.6672 11.5425 41.3072 11.88 41.1778C14.4422 40.1794 15.66 38.4947 15.6009 36.0281C15.5447 33.6572 14.3044 32.0625 11.8125 31.1484C11.4722 31.0219 11.2781 30.6647 11.3569 30.3103C11.9559 27.6891 12.9741 25.1888 14.3775 22.8797C14.5659 22.5675 14.9597 22.4438 15.2916 22.5984C17.7862 23.7459 19.8394 23.4506 21.5747 21.6872C23.2847 19.9491 23.5462 17.9072 22.3847 15.4491C22.2272 15.1172 22.3425 14.7234 22.6519 14.5294C24.9047 13.1203 27.3966 12.0769 30.0628 11.4216C30.4228 11.3372 30.7828 11.5284 30.9094 11.8716C31.9359 14.6419 33.7387 15.8878 36.4275 15.6938C38.6466 15.5306 40.1878 14.2425 41.0034 11.8631C41.1244 11.5144 41.4872 11.3119 41.8472 11.3963C44.4684 12.0066 46.9716 13.0359 49.2891 14.4647C49.5984 14.6531 49.7166 15.0469 49.5647 15.3788C48.4116 17.8819 48.7012 19.9378 50.4478 21.6619C52.1606 23.355 54.2475 23.6447 56.6494 22.5197C56.9362 22.3847 57.2822 22.455 57.4959 22.6969C58.5253 23.8669 60.4716 28.5525 60.6459 30.2878C60.6797 30.6112 60.4912 30.915 60.1903 31.0331C57.6281 32.0259 56.4075 33.7078 56.4581 36.1744C56.5059 38.5172 57.7294 40.1175 60.1959 41.0597C60.5306 41.1891 60.7219 41.5462 60.6375 41.8978C60.0216 44.4937 58.9894 46.9716 57.5662 49.2722C57.3806 49.5731 56.9981 49.6941 56.6747 49.5534C54.0197 48.4256 51.8962 48.8475 50.1834 50.8444C48.7828 52.4784 48.5831 54.3628 49.5759 56.6016C49.7194 56.9222 49.6097 57.3019 49.3144 57.4959L49.2356 57.5494C49.1569 57.6028 49.0697 57.6591 48.9825 57.7125C46.8844 58.9612 44.6175 59.8978 42.2437 60.4997C41.4647 60.6966 41.1019 60.2662 40.9416 59.8669C40.0837 57.7378 38.2472 56.4722 36.0141 56.4722C35.9887 56.4722 35.9634 56.4722 35.9381 56.4722C33.8231 56.5003 31.9978 57.8475 31.1766 59.9906C31.1597 60.0441 31.1316 60.1003 31.0922 60.1706C30.9656 60.4266 30.6787 60.6206 30.3947 60.6206ZM24.1284 56.6634C25.9791 57.7266 27.9506 58.5309 30.0066 59.0597C31.1203 56.6241 33.3928 55.0631 35.9241 55.0322C38.6916 55.0181 41.0062 56.4862 42.1537 59.0344C44.2434 58.4775 46.2037 57.6647 48.0262 56.6044C47.1037 54.1041 47.4666 51.8006 49.0922 49.905C51.0778 47.5903 53.6794 46.935 56.6522 47.9981C57.7294 46.1559 58.5478 44.1956 59.0878 42.1566C56.4441 40.9584 55.0772 38.9587 55.0181 36.2053C54.9591 33.3309 56.3766 31.1681 59.1216 29.9194C58.7644 28.3556 57.5241 25.3434 56.7112 24.0581C53.9662 25.155 51.4575 24.6825 49.4353 22.6856C47.4103 20.6859 46.9209 18.1659 48.0037 15.3703C46.1531 14.2959 44.1816 13.4831 42.1312 12.9488C41.0625 15.4969 39.1387 16.9369 36.5316 17.1281C33.4266 17.3644 31.1062 15.9244 29.8041 12.9769C27.72 13.5422 25.7541 14.3663 23.9456 15.4294C25.0397 18.18 24.5812 20.6831 22.6012 22.6969C20.5959 24.7359 18.0816 25.2366 15.2916 24.1622C14.2341 26.01 13.4325 27.9816 12.9066 30.0375C15.5503 31.2019 16.9762 33.2494 17.0437 35.9944C17.1112 38.8547 15.7134 41.0119 12.9909 42.2691C13.5422 44.3053 14.3719 46.2628 15.4575 48.0994C18.1547 47.0953 20.6044 47.5706 22.5759 49.4859C24.5897 51.4462 25.1212 53.9184 24.1284 56.6634ZM35.9944 40.9191C35.9916 40.9191 35.9916 40.9191 35.9887 40.9191C33.2662 40.905 31.0612 38.6859 31.0725 35.9719C31.0781 34.6556 31.5984 33.4237 32.5322 32.5012C33.4744 31.5731 34.6922 31.0584 36.0591 31.0809C37.3866 31.0922 38.6269 31.6266 39.5494 32.5856C40.4747 33.5447 40.9612 34.8075 40.9247 36.1434C40.8487 38.8069 38.6831 40.905 35.9972 40.9191H35.9944ZM36.0112 32.5209C35.0775 32.5209 34.2028 32.8753 33.5447 33.525C32.8837 34.1775 32.5181 35.0494 32.5125 35.9803C32.5041 37.8984 34.065 39.4678 35.9916 39.4791C37.8984 39.4678 39.4312 37.9856 39.4847 36.1041C39.5128 35.1562 39.1669 34.2619 38.5116 33.5841C37.8619 32.9062 36.9844 32.5294 36.045 32.5209C36.0337 32.5209 36.0225 32.5209 36.0112 32.5209Z" fill="#EBFBFF"/>
<path d="M51.03 32.175C48.9178 23.8725 40.4747 18.8578 32.175 20.97C23.8725 23.0822 18.8578 31.5253 20.97 39.8278C23.0822 48.1275 31.5253 53.145 39.8278 51.03C48.1275 48.9178 53.145 40.4747 51.03 32.175ZM39.0544 48.0038C32.4253 49.6913 25.6837 45.6834 23.9962 39.0544C22.3087 32.4253 26.3165 25.6838 32.9456 23.9963C39.5747 22.3088 46.3162 26.3166 48.0037 32.9456C49.6912 39.5747 45.6834 46.3163 39.0544 48.0038Z" fill="#07323B"/>
<path d="M36.0563 48.8981C30.4341 48.8981 25.2984 45.1012 23.85 39.4087C22.1344 32.6812 26.2181 25.8103 32.9484 24.0975C39.6703 22.3847 46.5469 26.4656 48.2597 33.1959C49.9725 39.9262 45.8916 46.7944 39.1613 48.5072C38.1234 48.7716 37.0828 48.8981 36.0563 48.8981ZM36.0534 24.4209C35.0859 24.4209 34.1016 24.5419 33.1228 24.7894C26.775 26.4066 22.9247 32.8866 24.5419 39.2344C26.1563 45.5822 32.6391 49.4297 38.9869 47.8153C45.3347 46.2009 49.1822 39.7209 47.5678 33.3731C46.2009 28.0041 41.355 24.4209 36.0534 24.4209ZM39.0741 48.1613H39.0797H39.0741ZM21.3272 31.1569C21.2878 31.1569 21.2484 31.1512 21.2063 31.1372C21.0206 31.0697 20.925 30.8644 20.9925 30.6787C22.7897 25.6753 26.9325 21.9066 32.0794 20.5987C32.2734 20.5481 32.4647 20.6634 32.5125 20.8547C32.5603 21.0459 32.445 21.24 32.2566 21.2906C27.3403 22.5394 23.3803 26.1422 21.6647 30.9206C21.6113 31.0669 21.4734 31.1569 21.3272 31.1569Z" fill="#EBFBFF"/>
<path d="M36.3825 51.7978C34.7794 51.7978 33.1425 51.5616 31.5225 51.0806C25.9987 49.4381 21.8981 45.2953 20.5509 39.9994C20.5031 39.8053 20.6184 39.6141 20.8097 39.5634C21.0037 39.5156 21.195 39.6309 21.2428 39.8222C22.5253 44.8734 26.4459 48.825 31.7278 50.3944C37.0491 51.9778 42.5334 50.7909 46.4034 47.2275C46.5469 47.0925 46.7747 47.1009 46.9069 47.2472C47.0419 47.3906 47.0306 47.6184 46.8872 47.7506C44.0128 50.4 40.2891 51.7978 36.3825 51.7978Z" fill="#EBFBFF"/>
<path d="M49.7053 43.5431C49.3847 44.1337 49.0247 44.7019 48.6309 45.2475Z" fill="#1E5194"/>
<path d="M48.6309 45.6047C48.5578 45.6047 48.4847 45.5822 48.4228 45.5372C48.2625 45.4219 48.2259 45.1969 48.3412 45.0366C48.7237 44.5106 49.0781 43.9509 49.3931 43.3716C49.4887 43.2 49.7081 43.1381 49.8769 43.2309C50.0512 43.3266 50.1131 43.5431 50.0203 43.7147C49.6912 44.3194 49.32 44.9044 48.9206 45.4584C48.8503 45.5541 48.7406 45.6047 48.6309 45.6047Z" fill="#EBFBFF"/>
<path d="M51.2297 39.5212C51.0159 40.4578 50.7178 41.3747 50.3353 42.255Z" fill="#1E5194"/>
<path d="M50.3353 42.6122C50.2875 42.6122 50.2397 42.6038 50.1947 42.5841C50.0119 42.5053 49.9303 42.2944 50.0063 42.1144C50.3803 41.2538 50.6756 40.3566 50.8838 39.4425C50.9259 39.2513 51.1172 39.1303 51.3113 39.1753C51.5025 39.2175 51.6234 39.4088 51.5784 39.6028C51.3619 40.5563 51.0525 41.4984 50.6644 42.3984C50.6053 42.5334 50.4731 42.6122 50.3353 42.6122ZM51.1341 32.5716C50.9738 32.5716 50.8275 32.4647 50.7881 32.3016C49.5225 27.3319 45.8719 23.355 41.0231 21.6619C40.8375 21.5972 40.7363 21.3947 40.8038 21.2063C40.8684 21.0206 41.0738 20.9222 41.2566 20.9869C46.3359 22.7588 50.1553 26.9213 51.48 32.1244C51.5278 32.3184 51.4125 32.5097 51.2213 32.5603C51.1931 32.5659 51.1622 32.5716 51.1341 32.5716Z" fill="#EBFBFF"/>
<path d="M41.5631 24.989L45.7087 23.985Z" fill="#1E5194"/>
<path d="M41.5631 25.3462C41.4 25.3462 41.2537 25.2366 41.2144 25.0706C41.1694 24.8794 41.2875 24.6881 41.4787 24.6403L45.6244 23.6362C45.8184 23.5941 46.0097 23.7094 46.0575 23.9006C46.1025 24.0919 45.9844 24.2859 45.7931 24.3309L41.6475 25.335C41.6166 25.3406 41.5884 25.3462 41.5631 25.3462Z" fill="#EBFBFF"/>
<path d="M45.1772 27.3713L48.2962 26.8566Z" fill="#1E5194"/>
<path d="M45.1772 27.7285C45.0056 27.7285 44.8538 27.6047 44.8256 27.4303C44.7919 27.2335 44.9241 27.0506 45.1181 27.0197L48.2372 26.5022C48.4256 26.4656 48.6169 26.6006 48.6478 26.7975C48.6816 26.9916 48.5494 27.1744 48.3553 27.2081L45.2363 27.7228C45.2166 27.7256 45.1969 27.7285 45.1772 27.7285Z" fill="#EBFBFF"/>
<path d="M47.1994 30.5719L50.3634 30.2288Z" fill="#1E5194"/>
<path d="M47.1994 30.9263C47.0194 30.9263 46.8647 30.7912 46.845 30.6084C46.8225 30.4144 46.9659 30.2372 47.16 30.2147L50.324 29.8744C50.5069 29.8519 50.6953 29.9925 50.7178 30.1922C50.7375 30.3862 50.5969 30.5634 50.4 30.5831L47.2359 30.9263C47.2247 30.9263 47.2106 30.9263 47.1994 30.9263Z" fill="#EBFBFF"/>
<path d="M30.0769 21.8306L30.3862 24.7275Z" fill="#1E5194"/>
<path d="M30.3862 25.0847C30.2062 25.0847 30.0515 24.9497 30.0347 24.7641L29.7197 21.87C29.7 21.676 29.8406 21.4988 30.0375 21.4763C30.2203 21.4566 30.4087 21.5972 30.4312 21.7941L30.7434 24.6881C30.7631 24.885 30.6225 25.0622 30.4256 25.0819C30.4144 25.0847 30.4003 25.0847 30.3862 25.0847Z" fill="#EBFBFF"/>
<path d="M27 23.4534L27.9534 26.6541Z" fill="#1E5194"/>
<path d="M27.9534 27.0113C27.7987 27.0113 27.6581 26.9128 27.6103 26.7581L26.6569 23.5575C26.6006 23.3663 26.7075 23.1694 26.8959 23.1131C27.0872 23.0597 27.2841 23.1638 27.3403 23.3522L28.2966 26.5528C28.3528 26.7441 28.2459 26.9409 28.0547 26.9972C28.0237 27.0084 27.9872 27.0113 27.9534 27.0113Z" fill="#EBFBFF"/>
<path d="M23.9119 26.2828L25.7934 29.07Z" fill="#1E5194"/>
<path d="M25.7934 29.4272C25.6781 29.4272 25.5656 29.3709 25.4953 29.2697L23.6166 26.4825C23.5069 26.3194 23.5491 26.0972 23.7122 25.9875C23.8753 25.875 24.0975 25.9172 24.2072 26.0831L26.0887 28.8703C26.1984 29.0334 26.1562 29.2556 25.9931 29.3653C25.9312 29.4075 25.8609 29.4272 25.7934 29.4272Z" fill="#EBFBFF"/>
<path d="M21.6647 41.9006L24.8737 41.7347Z" fill="#1E5194"/>
<path d="M21.6647 42.2578C21.4763 42.2578 21.3188 42.1088 21.3075 41.9175C21.2963 41.7206 21.4481 41.5547 21.6478 41.5434L24.8541 41.3775C25.0734 41.3663 25.2197 41.5181 25.2281 41.715C25.2394 41.9119 25.0903 42.0806 24.8906 42.0919L21.6844 42.2578C21.6759 42.2578 21.6703 42.2578 21.6647 42.2578Z" fill="#EBFBFF"/>
<path d="M23.5969 45.3825L26.7103 44.4544Z" fill="#1E5194"/>
<path d="M23.5969 45.7397C23.4422 45.7397 23.3016 45.6413 23.2537 45.4866C23.1975 45.2953 23.3044 45.0984 23.4956 45.0422L26.6091 44.1113C26.7975 44.0578 26.9972 44.1647 27.0534 44.3531C27.1097 44.5416 27.0028 44.7413 26.8116 44.7975L23.6981 45.7256C23.6644 45.7341 23.6306 45.7397 23.5969 45.7397Z" fill="#EBFBFF"/>
<path d="M26.9466 48.2934L29.5734 46.9434Z" fill="#1E5194"/>
<path d="M26.9466 48.6535C26.8144 48.6535 26.6906 48.5803 26.6288 48.4594C26.5388 48.2822 26.6063 48.0685 26.7834 47.9785L29.4103 46.6285C29.5847 46.5385 29.8013 46.606 29.8913 46.7831C29.9813 46.9575 29.9138 47.1741 29.7366 47.2641L27.1097 48.6141C27.0563 48.6394 27.0028 48.6535 26.9466 48.6535Z" fill="#EBFBFF"/>
<path d="M31.2328 50.2988L33.1734 48.4425Z" fill="#1E5194"/>
<path d="M31.2328 50.656C31.1372 50.656 31.0444 50.6194 30.9741 50.5463C30.8391 50.4056 30.8447 50.1778 30.9853 50.0428L32.9287 48.1866C33.0694 48.0488 33.2972 48.0544 33.4322 48.1978C33.57 48.3385 33.5644 48.5663 33.4209 48.7013L31.4803 50.5575C31.41 50.625 31.3228 50.656 31.2328 50.656Z" fill="#EBFBFF"/>
<path d="M35.8594 51.4238L37.3669 48.6141Z" fill="#1E5194"/>
<path d="M35.8593 51.781C35.8003 51.781 35.744 51.7669 35.6906 51.7388C35.5162 51.6431 35.4515 51.4266 35.5443 51.255L37.0518 48.4453C37.1475 48.271 37.364 48.2063 37.5356 48.2991C37.71 48.3919 37.7747 48.6085 37.6818 48.7828L36.1743 51.5925C36.1097 51.7135 35.9859 51.781 35.8593 51.781Z" fill="#EBFBFF"/>
<path d="M40.8516 50.6194L41.0878 47.6663Z" fill="#1E5194"/>
<path d="M40.8515 50.9766C40.8403 50.9766 40.8318 50.9766 40.8206 50.9766C40.6265 50.9597 40.4775 50.7881 40.4943 50.5912L40.7306 47.6381C40.7475 47.4412 40.9247 47.2978 41.1159 47.3119C41.3128 47.3259 41.459 47.4975 41.4422 47.6944L41.2059 50.6475C41.1918 50.8359 41.0343 50.9766 40.8515 50.9766Z" fill="#EBFBFF"/>
<path d="M33.7584 20.5903C34.709 20.4609 35.6737 20.4187 36.6328 20.4666Z" fill="#1E5194"/>
<path d="M33.7584 20.9475C33.5812 20.9475 33.4294 20.8181 33.404 20.6381C33.3787 20.4441 33.5137 20.2641 33.7106 20.2359C34.6781 20.1037 35.6681 20.0587 36.6497 20.1094C36.8465 20.1178 36.9984 20.2837 36.9872 20.4834C36.9787 20.6775 36.8381 20.8462 36.6131 20.8209C35.6794 20.7759 34.7315 20.8181 33.8062 20.9447C33.7894 20.9475 33.7753 20.9475 33.7584 20.9475Z" fill="#EBFBFF"/>
</svg>
